solid OpenSCAD_Model
  facet normal 0 0 1
    outer loop
      vertex -3 13 17
      vertex 7 -7 17
      vertex 7 13 17
    endloop
  endfacet
  facet normal 0 0 1
    outer loop
      vertex 7 -7 17
      vertex -3 13 17
      vertex -3 -7 17
    endloop
  endfacet
  facet normal 0 0 -1
    outer loop
      vertex -3 -7 -13
      vertex 7 13 -13
      vertex 7 -7 -13
    endloop
  endfacet
  facet normal 0 0 -1
    outer loop
      vertex 7 13 -13
      vertex -3 -7 -13
      vertex -3 13 -13
    endloop
  endfacet
  facet normal 0 -1 0
    outer loop
      vertex -3 -7 -13
      vertex 7 -7 17
      vertex -3 -7 17
    endloop
  endfacet
  facet normal 0 -1 0
    outer loop
      vertex 7 -7 17
      vertex -3 -7 -13
      vertex 7 -7 -13
    endloop
  endfacet
  facet normal 1 0 0
    outer loop
      vertex 7 -7 17
      vertex 7 13 -13
      vertex 7 13 17
    endloop
  endfacet
  facet normal 1 0 0
    outer loop
      vertex 7 13 -13
      vertex 7 -7 17
      vertex 7 -7 -13
    endloop
  endfacet
  facet normal 0 1 0
    outer loop
      vertex 7 13 -13
      vertex -3 13 17
      vertex 7 13 17
    endloop
  endfacet
  facet normal 0 1 0
    outer loop
      vertex -3 13 17
      vertex 7 13 -13
      vertex -3 13 -13
    endloop
  endfacet
  facet normal -1 0 0
    outer loop
      vertex -3 -7 -13
      vertex -3 13 17
      vertex -3 13 -13
    endloop
  endfacet
  facet normal -1 0 0
    outer loop
      vertex -3 13 17
      vertex -3 -7 -13
      vertex -3 -7 17
    endloop
  endfacet
endsolid OpenSCAD_Model
